<svg width="514" height="514" viewBox="0 0 514 514" fill="none" xmlns="http://www.w3.org/2000/svg">
<g clip-path="url(#clip0)">
<path d="M223.568 344.448L391.872 513.248L412.816 413.504L512.624 392.848L344.32 224.048L223.568 344.448Z" fill="#4B9FD8"/>
<path d="M446.368 399.696C440.848 394.704 432.192 395.472 426.928 400.72L421.76 405.872C416.368 410.944 407.856 410.88 402.592 405.6C397.232 400.224 397.248 391.488 402.624 386.128L417.184 371.6C421.68 367.12 421.696 359.744 417.152 355.312L416.464 354.624C412.352 349.872 405.056 349.68 400.608 354.096L357.008 397.568C351.696 402.864 343.088 403.6 337.536 398.656C331.68 393.28 331.504 384.224 337.072 378.688L377.504 338.384C382 333.904 382.016 326.528 377.52 322.032L376.896 321.536L376.768 321.408C372.096 316.592 364.352 316.592 359.6 321.328L336.928 343.936C331.616 349.232 323.008 349.968 317.392 344.976C311.6 339.664 311.36 330.544 316.928 325.008L341.984 300.032C346.672 295.36 346.24 287.936 341.504 283.312C341.44 283.248 341.44 283.248 341.376 283.184C341.312 283.12 341.312 283.12 341.248 283.056C336.64 278.304 329.216 277.856 324.528 282.528L297.504 309.472C292.256 314.704 283.648 315.44 278.096 310.512C272.24 305.136 272.064 296.08 277.632 290.544L344.304 224.064L512.624 392.848L450.048 405.792C449.344 403.552 448.256 401.408 446.368 399.696Z" fill="#3789C9"/>
<path d="M289.68 344.448L121.376 513.248L100.432 413.504L0.624023 392.848L168.928 224.048L289.68 344.448Z" fill="#4B9FD8"/>
<path d="M66.88 399.696C72.4 394.704 81.056 395.472 86.32 400.72L91.488 405.872C96.88 410.944 105.392 410.88 110.656 405.6C116.016 400.224 116 391.488 110.624 386.128L96.064 371.6C91.568 367.12 91.552 359.744 96.096 355.312L96.784 354.624C100.896 349.872 108.192 349.68 112.624 354.112L156.224 397.584C161.536 402.88 170.144 403.616 175.696 398.672C181.552 393.296 181.728 384.24 176.16 378.704L135.744 338.384C131.248 333.904 131.232 326.528 135.728 322.032L136.352 321.536L136.48 321.408C141.152 316.592 148.896 316.592 153.648 321.328L176.32 343.936C181.632 349.232 190.24 349.968 195.856 344.976C201.648 339.664 201.888 330.544 196.32 325.008L171.264 300.032C166.576 295.36 167.008 287.936 171.744 283.312C171.808 283.248 171.808 283.248 171.872 283.184C171.936 283.12 171.936 283.12 172 283.056C176.608 278.304 184.032 277.856 188.72 282.528L215.744 309.472C220.992 314.704 229.6 315.44 235.152 310.512C241.008 305.136 241.184 296.08 235.616 290.544L168.944 224.064L0.624023 392.848L63.2 405.792C63.904 403.552 64.992 401.408 66.88 399.696Z" fill="#3789C9"/>
<path d="M467.136 210.512L429.888 256.96L438.96 315.808L383.424 337.328L361.904 392.848L303.056 383.776L256.624 421.024L210.176 383.776L151.328 392.848L129.824 337.312L74.2883 315.792L83.3603 256.96L46.1123 210.512L83.3603 164.08L74.2883 105.232L129.824 83.712L151.344 28.176L210.192 37.248L256.624 0L303.072 37.248L361.92 28.192L383.424 83.712L438.96 105.232L429.888 164.08L467.136 210.512Z" fill="#F95E32"/>
<path d="M288.688 189.088H153.92C144.768 189.088 137.168 181.488 137.168 172.336L137.36 171.168V170.976C137.168 161.232 145.152 153.232 154.896 153.232H253.232C264.144 153.232 273.696 145.248 274.48 134.336C274.864 122.832 265.904 113.296 254.4 113.296H151.184C141.44 113.296 134.416 105.296 134.416 95.552C134.416 95.552 134.416 95.552 134.416 95.36C134.416 95.168 134.416 95.168 134.416 95.168C134.432 85.6 141.44 77.424 151.184 77.424H237.424C248.144 77.424 257.696 69.44 258.272 58.72C258.864 47.024 249.696 37.664 238.4 37.664H147.664L129.824 83.712L74.2883 105.232L83.3603 164.08L46.1123 210.512L83.3603 256.96L74.2883 315.808L129.824 337.328L147.664 383.376H251.664C262.576 383.376 272.128 375.392 272.704 364.672C273.296 353.168 264.128 343.632 252.832 343.632H166C154.496 343.632 145.344 334.08 145.92 322.592C146.512 311.872 156.256 303.696 166.96 303.696H249.888C260.608 303.504 269.184 294.72 269.184 283.824C269.184 272.912 260.224 263.952 249.312 263.952H147.296C137.936 263.952 130.336 256.352 130.544 247.2V245.632C129.952 236.672 137.168 228.88 146.336 228.88H287.536C298.448 228.88 308 220.896 308.784 210.176C309.152 198.624 300.192 189.088 288.688 189.088Z" fill="#D03306"/>
<path d="M256.624 343.808C183.12 343.808 123.328 284 123.328 210.512C123.328 137.024 183.12 77.216 256.624 77.216C330.128 77.216 389.92 137.024 389.92 210.512C389.92 284 330.128 343.808 256.624 343.808Z" fill="#FF9500"/>
<path d="M233.888 91.632C233.44 100.496 240.496 107.84 249.2 107.84H316.096C324.96 107.84 332.016 115.2 331.552 124.048C331.104 132.304 323.6 138.608 315.344 138.608H251.456C243.2 138.752 236.592 145.52 236.592 153.92C236.592 162.32 243.504 169.232 251.904 169.232H330.496C337.696 169.232 343.552 175.088 343.408 182.144V183.344C343.856 190.256 338.304 196.256 331.248 196.256H222.48C214.08 196.256 206.72 202.416 206.112 210.672C205.808 219.536 212.72 226.88 221.568 226.88H325.392C332.448 226.88 338.304 232.736 338.304 239.792L338.16 240.688V240.832C338.304 248.336 332.16 254.496 324.656 254.496H248.912C240.512 254.496 233.152 260.656 232.544 269.056C232.24 277.92 239.152 285.264 248 285.264H327.504C335.008 285.264 340.416 291.424 340.416 298.928C340.416 298.928 340.416 298.928 340.416 299.072C340.416 299.216 340.416 299.216 340.416 299.216C340.416 306.576 335.008 312.88 327.504 312.88H261.072C252.816 312.88 245.456 319.04 245.008 327.296C244.56 336.304 251.616 343.504 260.32 343.504H262.032C333.024 340.64 389.936 282.16 389.936 210.48C389.936 136.992 330.144 77.184 256.64 77.184C253.584 77.184 250.592 77.44 247.6 77.648C240.304 78.8 234.288 84.24 233.888 91.632Z" fill="#DC4F46"/>
<path d="M231.328 271.056C226.448 271.056 221.776 269.12 218.336 265.664L184.624 231.968C177.44 224.784 177.44 213.152 184.624 205.968C191.808 198.784 203.456 198.784 210.624 205.968L231.328 226.672L302.64 155.36C309.824 148.176 321.456 148.176 328.64 155.36C335.824 162.544 335.824 174.176 328.64 181.36L244.336 265.664C240.88 269.12 236.192 271.056 231.328 271.056Z" fill="white"/>
</g>
<defs>
<clipPath id="clip0">
<rect width="513.248" height="513.248" fill="white"/>
</clipPath>
</defs>
</svg>
